<svg width="17" height="19" viewBox="0 0 17 19" fill="none" xmlns="http://www.w3.org/2000/svg">
<path d="M17 13.3594V0.890625C17 0.39707 16.594 0 16.0893 0H3.64286C1.6317 0 0 1.5957 0 3.5625V15.4375C0 17.4043 1.6317 19 3.64286 19H16.0893C16.594 19 17 18.6029 17 18.1094V17.5156C17 17.2373 16.8672 16.985 16.6623 16.8217C16.5029 16.2502 16.5029 14.6211 16.6623 14.0496C16.8672 13.89 17 13.6377 17 13.3594ZM4.85714 4.97266C4.85714 4.8502 4.9596 4.75 5.08482 4.75H13.1295C13.2547 4.75 13.3571 4.8502 13.3571 4.97266V5.71484C13.3571 5.8373 13.2547 5.9375 13.1295 5.9375H5.08482C4.9596 5.9375 4.85714 5.8373 4.85714 5.71484V4.97266ZM4.85714 7.34766C4.85714 7.2252 4.9596 7.125 5.08482 7.125H13.1295C13.2547 7.125 13.3571 7.2252 13.3571 7.34766V8.08984C13.3571 8.21231 13.2547 8.3125 13.1295 8.3125H5.08482C4.9596 8.3125 4.85714 8.21231 4.85714 8.08984V7.34766ZM14.4728 16.625H3.64286C2.97121 16.625 2.42857 16.0943 2.42857 15.4375C2.42857 14.7844 2.975 14.25 3.64286 14.25H14.4728C14.4007 14.8846 14.4007 15.9904 14.4728 16.625Z" fill="black"/>
</svg>
